<mxfile host="65bd71144e">
    <diagram id="WaqWd-kPIALvzAuEo6xh" name="Page-1">
        <mxGraphModel dx="869" dy="384" grid="1" gridSize="10" guides="1" tooltips="1" connect="1" arrows="1" fold="1" page="1" pageScale="1" pageWidth="1169" pageHeight="827" math="0" shadow="0">
            <root>
                <mxCell id="0"/>
                <mxCell id="1" parent="0"/>
                <mxCell id="3" value="Admins" style="swimlane;childLayout=stackLayout;horizontal=1;startSize=30;horizontalStack=0;rounded=1;fontSize=14;fontStyle=0;strokeWidth=2;resizeParent=0;resizeLast=1;shadow=0;dashed=0;align=center;" vertex="1" parent="1">
                    <mxGeometry x="40" y="40" width="160" height="120" as="geometry"/>
                </mxCell>
                <mxCell id="4" value="ID&#10;Username&#10;Password&#10;superRoot&#10;" style="align=left;strokeColor=none;fillColor=none;spacingLeft=4;fontSize=12;verticalAlign=top;resizable=0;rotatable=0;part=1;" vertex="1" parent="3">
                    <mxGeometry y="30" width="160" height="90" as="geometry"/>
                </mxCell>
                <mxCell id="5" value="Params" style="swimlane;childLayout=stackLayout;horizontal=1;startSize=30;horizontalStack=0;rounded=1;fontSize=14;fontStyle=0;strokeWidth=2;resizeParent=0;resizeLast=1;shadow=0;dashed=0;align=center;" vertex="1" parent="1">
                    <mxGeometry x="360" y="40" width="160" height="120" as="geometry"/>
                </mxCell>
                <mxCell id="6" value="ID&#10;Fonts&#10;bgColors" style="align=left;strokeColor=none;fillColor=none;spacingLeft=4;fontSize=12;verticalAlign=top;resizable=0;rotatable=0;part=1;" vertex="1" parent="5">
                    <mxGeometry y="30" width="160" height="90" as="geometry"/>
                </mxCell>
                <mxCell id="7" value="" style="edgeStyle=entityRelationEdgeStyle;fontSize=12;html=1;endArrow=ERmandOne;startArrow=ERmandOne;exitX=1;exitY=0.25;exitDx=0;exitDy=0;entryX=0;entryY=0.25;entryDx=0;entryDy=0;" edge="1" parent="1" source="4" target="6">
                    <mxGeometry width="100" height="100" relative="1" as="geometry">
                        <mxPoint x="360" y="190" as="sourcePoint"/>
                        <mxPoint x="460" y="90" as="targetPoint"/>
                    </mxGeometry>
                </mxCell>
                <mxCell id="8" value="Internships" style="swimlane;childLayout=stackLayout;horizontal=1;startSize=30;horizontalStack=0;rounded=1;fontSize=14;fontStyle=0;strokeWidth=2;resizeParent=0;resizeLast=1;shadow=0;dashed=0;align=center;" vertex="1" parent="1">
                    <mxGeometry x="40" y="200" width="160" height="210" as="geometry"/>
                </mxCell>
                <mxCell id="9" value="ID&#10;Name&#10;NumberAvailable&#10;startDate&#10;endDate&#10;startHour&#10;endHour&#10;price&#10;place&#10;fromAge&#10;imgRights&#10;" style="align=left;strokeColor=none;fillColor=none;spacingLeft=4;fontSize=12;verticalAlign=top;resizable=0;rotatable=0;part=1;" vertex="1" parent="8">
                    <mxGeometry y="30" width="160" height="180" as="geometry"/>
                </mxCell>
                <mxCell id="10" value="Intern_Internships" style="swimlane;childLayout=stackLayout;horizontal=1;startSize=30;horizontalStack=0;rounded=1;fontSize=14;fontStyle=0;strokeWidth=2;resizeParent=0;resizeLast=1;shadow=0;dashed=0;align=center;" vertex="1" parent="1">
                    <mxGeometry x="260" y="265" width="160" height="80" as="geometry"/>
                </mxCell>
                <mxCell id="11" value="ID_Interns&#10;ID_Internships" style="align=left;strokeColor=none;fillColor=none;spacingLeft=4;fontSize=12;verticalAlign=top;resizable=0;rotatable=0;part=1;" vertex="1" parent="10">
                    <mxGeometry y="30" width="160" height="50" as="geometry"/>
                </mxCell>
                <mxCell id="12" value="Interns" style="swimlane;childLayout=stackLayout;horizontal=1;startSize=30;horizontalStack=0;rounded=1;fontSize=14;fontStyle=0;strokeWidth=2;resizeParent=0;resizeLast=1;shadow=0;dashed=0;align=center;" vertex="1" parent="1">
                    <mxGeometry x="500" y="190" width="160" height="150" as="geometry"/>
                </mxCell>
                <mxCell id="13" value="ID&#10;childName&#10;parentName&#10;parentPhone&#10;age&#10;paid&#10;healthIssues" style="align=left;strokeColor=none;fillColor=none;spacingLeft=4;fontSize=12;verticalAlign=top;resizable=0;rotatable=0;part=1;" vertex="1" parent="12">
                    <mxGeometry y="30" width="160" height="120" as="geometry"/>
                </mxCell>
                <mxCell id="14" value="" style="edgeStyle=entityRelationEdgeStyle;fontSize=12;html=1;endArrow=ERmany;startArrow=ERmany;entryX=-0.028;entryY=0.816;entryDx=0;entryDy=0;entryPerimeter=0;" edge="1" parent="1" source="11" target="13">
                    <mxGeometry width="100" height="100" relative="1" as="geometry">
                        <mxPoint x="360" y="350" as="sourcePoint"/>
                        <mxPoint x="460" y="250" as="targetPoint"/>
                    </mxGeometry>
                </mxCell>
                <mxCell id="15" value="" style="edgeStyle=entityRelationEdgeStyle;fontSize=12;html=1;endArrow=ERmany;startArrow=ERmany;entryX=0;entryY=0.5;entryDx=0;entryDy=0;" edge="1" parent="1" target="11">
                    <mxGeometry width="100" height="100" relative="1" as="geometry">
                        <mxPoint x="200" y="400" as="sourcePoint"/>
                        <mxPoint x="250" y="340" as="targetPoint"/>
                    </mxGeometry>
                </mxCell>
            </root>
        </mxGraphModel>
    </diagram>
</mxfile>